<mxfile host="app.diagrams.net" agent="Mozilla/5.0 (Macintosh; Intel Mac OS X 10_15_7) AppleWebKit/605.1.15 (KHTML, like Gecko) Version/16.6 Safari/605.1.15" version="28.2.3">
  <diagram name="Page-1" id="8J9QAvHiA205GfA3pVa4">
    <mxGraphModel dx="805" dy="591" grid="1" gridSize="10" guides="1" tooltips="1" connect="1" arrows="1" fold="1" page="1" pageScale="1" pageWidth="850" pageHeight="1100" math="0" shadow="0">
      <root>
        <mxCell id="0" />
        <mxCell id="1" parent="0" />
        <mxCell id="uQJIJIHvUW5hQPoCpwjS-9" style="edgeStyle=none;curved=1;rounded=0;orthogonalLoop=1;jettySize=auto;html=1;entryX=1;entryY=0.5;entryDx=0;entryDy=0;fontSize=12;startSize=8;endSize=8;" edge="1" parent="1" source="uQJIJIHvUW5hQPoCpwjS-2" target="uQJIJIHvUW5hQPoCpwjS-3">
          <mxGeometry relative="1" as="geometry" />
        </mxCell>
        <mxCell id="uQJIJIHvUW5hQPoCpwjS-13" style="edgeStyle=none;curved=1;rounded=0;orthogonalLoop=1;jettySize=auto;html=1;entryX=0.5;entryY=1;entryDx=0;entryDy=0;fontSize=12;startSize=8;endSize=8;" edge="1" parent="1" source="uQJIJIHvUW5hQPoCpwjS-2" target="uQJIJIHvUW5hQPoCpwjS-12">
          <mxGeometry relative="1" as="geometry" />
        </mxCell>
        <mxCell id="uQJIJIHvUW5hQPoCpwjS-2" value="Arduino/Flight Computer" style="text;strokeColor=none;fillColor=none;html=1;align=center;verticalAlign=middle;whiteSpace=wrap;rounded=0;fontSize=16;" vertex="1" parent="1">
          <mxGeometry x="370" y="380" width="120" height="50" as="geometry" />
        </mxCell>
        <mxCell id="uQJIJIHvUW5hQPoCpwjS-8" style="edgeStyle=orthogonalEdgeStyle;rounded=0;orthogonalLoop=1;jettySize=auto;html=1;entryX=0;entryY=0.5;entryDx=0;entryDy=0;fontSize=12;startSize=8;endSize=8;exitX=0.5;exitY=1;exitDx=0;exitDy=0;" edge="1" parent="1" source="uQJIJIHvUW5hQPoCpwjS-3" target="uQJIJIHvUW5hQPoCpwjS-4">
          <mxGeometry relative="1" as="geometry" />
        </mxCell>
        <mxCell id="uQJIJIHvUW5hQPoCpwjS-3" value="Motors" style="text;strokeColor=none;fillColor=none;html=1;align=center;verticalAlign=middle;whiteSpace=wrap;rounded=0;fontSize=16;" vertex="1" parent="1">
          <mxGeometry x="180" y="390" width="60" height="30" as="geometry" />
        </mxCell>
        <mxCell id="uQJIJIHvUW5hQPoCpwjS-7" style="edgeStyle=none;curved=1;rounded=0;orthogonalLoop=1;jettySize=auto;html=1;entryX=0.5;entryY=1;entryDx=0;entryDy=0;fontSize=12;startSize=8;endSize=8;" edge="1" parent="1" source="uQJIJIHvUW5hQPoCpwjS-4" target="uQJIJIHvUW5hQPoCpwjS-2">
          <mxGeometry relative="1" as="geometry" />
        </mxCell>
        <mxCell id="uQJIJIHvUW5hQPoCpwjS-4" value="IMU" style="text;strokeColor=none;fillColor=none;html=1;align=center;verticalAlign=middle;whiteSpace=wrap;rounded=0;fontSize=16;" vertex="1" parent="1">
          <mxGeometry x="400" y="490" width="60" height="30" as="geometry" />
        </mxCell>
        <mxCell id="uQJIJIHvUW5hQPoCpwjS-11" style="edgeStyle=none;curved=1;rounded=0;orthogonalLoop=1;jettySize=auto;html=1;entryX=1;entryY=0.5;entryDx=0;entryDy=0;fontSize=12;startSize=8;endSize=8;" edge="1" parent="1" source="uQJIJIHvUW5hQPoCpwjS-5" target="uQJIJIHvUW5hQPoCpwjS-6">
          <mxGeometry relative="1" as="geometry" />
        </mxCell>
        <mxCell id="uQJIJIHvUW5hQPoCpwjS-5" value="Computer" style="text;strokeColor=none;fillColor=none;html=1;align=center;verticalAlign=middle;whiteSpace=wrap;rounded=0;fontSize=16;" vertex="1" parent="1">
          <mxGeometry x="710" y="390" width="90" height="30" as="geometry" />
        </mxCell>
        <mxCell id="uQJIJIHvUW5hQPoCpwjS-10" style="edgeStyle=none;curved=1;rounded=0;orthogonalLoop=1;jettySize=auto;html=1;entryX=1;entryY=0.5;entryDx=0;entryDy=0;fontSize=12;startSize=8;endSize=8;" edge="1" parent="1" source="uQJIJIHvUW5hQPoCpwjS-6" target="uQJIJIHvUW5hQPoCpwjS-2">
          <mxGeometry relative="1" as="geometry" />
        </mxCell>
        <mxCell id="uQJIJIHvUW5hQPoCpwjS-6" value="Radio" style="text;strokeColor=none;fillColor=none;html=1;align=center;verticalAlign=middle;whiteSpace=wrap;rounded=0;fontSize=16;" vertex="1" parent="1">
          <mxGeometry x="570" y="390" width="60" height="30" as="geometry" />
        </mxCell>
        <mxCell id="uQJIJIHvUW5hQPoCpwjS-14" style="edgeStyle=orthogonalEdgeStyle;rounded=0;orthogonalLoop=1;jettySize=auto;html=1;entryX=0.5;entryY=0;entryDx=0;entryDy=0;fontSize=12;startSize=8;endSize=8;" edge="1" parent="1" source="uQJIJIHvUW5hQPoCpwjS-12" target="uQJIJIHvUW5hQPoCpwjS-3">
          <mxGeometry relative="1" as="geometry" />
        </mxCell>
        <mxCell id="uQJIJIHvUW5hQPoCpwjS-12" value="PID" style="text;strokeColor=none;fillColor=none;html=1;align=center;verticalAlign=middle;whiteSpace=wrap;rounded=0;fontSize=16;" vertex="1" parent="1">
          <mxGeometry x="400" y="290" width="60" height="30" as="geometry" />
        </mxCell>
        <mxCell id="uQJIJIHvUW5hQPoCpwjS-15" value="IMU Data" style="text;strokeColor=none;fillColor=none;html=1;align=center;verticalAlign=middle;whiteSpace=wrap;rounded=0;fontSize=16;" vertex="1" parent="1">
          <mxGeometry x="380" y="340" width="100" height="30" as="geometry" />
        </mxCell>
        <mxCell id="uQJIJIHvUW5hQPoCpwjS-17" value="Control Input" style="text;strokeColor=none;fillColor=none;html=1;align=center;verticalAlign=middle;whiteSpace=wrap;rounded=0;fontSize=16;" vertex="1" parent="1">
          <mxGeometry x="650" y="420" width="60" height="40" as="geometry" />
        </mxCell>
        <mxCell id="uQJIJIHvUW5hQPoCpwjS-20" value="Movement" style="text;strokeColor=none;fillColor=none;html=1;align=center;verticalAlign=middle;whiteSpace=wrap;rounded=0;fontSize=16;" vertex="1" parent="1">
          <mxGeometry x="230" y="460" width="60" height="30" as="geometry" />
        </mxCell>
        <mxCell id="uQJIJIHvUW5hQPoCpwjS-21" value="Execute inputted commands" style="text;strokeColor=none;fillColor=none;html=1;align=center;verticalAlign=middle;whiteSpace=wrap;rounded=0;fontSize=16;" vertex="1" parent="1">
          <mxGeometry x="280" y="360" width="60" height="30" as="geometry" />
        </mxCell>
        <mxCell id="uQJIJIHvUW5hQPoCpwjS-22" value="Adjust motors for stability" style="text;strokeColor=none;fillColor=none;html=1;align=center;verticalAlign=middle;whiteSpace=wrap;rounded=0;fontSize=16;" vertex="1" parent="1">
          <mxGeometry x="270" y="270" width="60" height="30" as="geometry" />
        </mxCell>
      </root>
    </mxGraphModel>
  </diagram>
</mxfile>
